<svg xmlns="http://www.w3.org/2000/svg" viewBox="0 0 320 380"><defs><linearGradient id="fur" x1="0" x2="1" y1="0" y2="1"><stop stop-color="#f6b45f"/><stop offset="1" stop-color="#d97832"/></linearGradient><filter id="s"><feDropShadow dx="0" dy="6" stdDeviation="5" flood-opacity=".18"/></filter></defs><g filter="url(#s)" stroke="#75462e" stroke-width="7" stroke-linejoin="round"><path d="M245 235c60 0 67 62 30 75-28 10-45-17-32-34 10-14 29-6 28 7" fill="none" stroke="#d97832" stroke-width="22" stroke-linecap="round"/><path d="M78 120 62 35l73 58M242 120l16-85-73 58" fill="url(#fur)"/><path d="M83 112c0-49 35-82 79-82s79 33 79 82v48c0 50-33 83-79 83s-79-33-79-83z" fill="url(#fur)"/><path d="M78 144c-22 1-29 22-18 37 7 10 19 13 30 8M242 144c22 1 29 22 18 37-7 10-19 13-30 8" fill="#f2a958"/><ellipse cx="116" cy="135" rx="18" ry="24" fill="#fff"/><ellipse cx="204" cy="135" rx="18" ry="24" fill="#fff"/><ellipse cx="119" cy="139" rx="7" ry="12" fill="#3c2b25" stroke="none"/><ellipse cx="201" cy="139" rx="7" ry="12" fill="#3c2b25" stroke="none"/><path d="M147 166q13-12 26 0-13 15-26 0z" fill="#7f3e3e"/><path d="M160 169q-3 20-17 22M160 169q3 20 17 22" fill="none"/><path d="M93 161h-55M96 174H35M227 161h55M224 174h61" fill="none" stroke-width="4"/><path d="M101 213c15 18 37 27 59 27s44-9 59-27c-3 61-29 92-59 92s-56-31-59-92z" fill="url(#fur)"/><path d="M112 276v64M155 284v70M208 276v64M165 284v70" fill="none" stroke="#d97832" stroke-width="30" stroke-linecap="round"/><path d="M101 226q59 37 118 0" fill="none" stroke="#4b8fc4" stroke-width="22"/><circle cx="160" cy="247" r="10" fill="#f5c93d"/><path d="M113 345h-20M165 354h-20M208 345h20M155 354h20" stroke-width="9" stroke-linecap="round"/></g></svg>